<?xml version="1.0" encoding="utf-8"?>
<!-- Generator: Adobe Illustrator 16.0.3, SVG Export Plug-In . SVG Version: 6.00 Build 0)  -->
<!DOCTYPE svg PUBLIC "-//W3C//DTD SVG 1.1//EN" "http://www.w3.org/Graphics/SVG/1.1/DTD/svg11.dtd">
<svg version="1.1" id="Ebene_1" xmlns="http://www.w3.org/2000/svg" xmlns:xlink="http://www.w3.org/1999/xlink" x="0px" y="0px"
	 width="14.173px" height="21.969px" viewBox="0 0 14.173 21.969" enable-background="new 0 0 14.173 21.969" xml:space="preserve">
<g>
	<g>
		<path fill="#FFFFFF" d="M9.218,2.833c-0.089,0-0.178,0.001-0.266,0.003C8.16,2.852,7.412,3.045,6.757,3.514
			c-0.751,0.54-1.163,1.297-1.319,2.193C5.373,6.077,5.355,6.459,5.346,6.834c-0.015,0.59-0.003,1.179-0.002,1.77v0.222H2.831v2.933
			H5.33v7.377h3.054v-7.365h2.492c0.127-0.975,0.252-1.941,0.383-2.948h-0.38h-0.18c-0.237,0.001-0.574,0.001-0.92,0.001
			c-0.692,0-1.415-0.001-1.415-0.001s0.007-1.454,0.025-2.085c0.024-0.865,0.537-1.13,1.229-1.153
			c0.202-0.007,0.404-0.009,0.605-0.009c0.141,0,0.282,0.001,0.423,0.002c0.138,0.001,0.276,0.002,0.414,0.002h0.075h0.208V2.952
			c-0.27-0.026-0.552-0.065-0.835-0.079C10.079,2.853,9.648,2.833,9.218,2.833"/>
	</g>
</g>
</svg>
