<?xml version="1.0" encoding="utf-8"?>
<!-- Generator: Adobe Illustrator 16.0.3, SVG Export Plug-In . SVG Version: 6.00 Build 0)  -->
<!DOCTYPE svg PUBLIC "-//W3C//DTD SVG 1.1//EN" "http://www.w3.org/Graphics/SVG/1.1/DTD/svg11.dtd">
<svg version="1.1" id="Ebene_1" xmlns="http://www.w3.org/2000/svg" xmlns:xlink="http://www.w3.org/1999/xlink" x="0px" y="0px"
	 width="25.852px" height="18.453px" viewBox="0 0 25.852 18.453" enable-background="new 0 0 25.852 18.453" xml:space="preserve">
<g>
	<path fill="#FFFFFF" d="M9.291,2.834c-0.184,0-0.367,0.012-0.552,0.019C8.381,2.867,8.032,2.929,7.685,3.018
		c-1.383,0.351-2.53,1.078-3.432,2.186C3.39,6.27,2.926,7.492,2.842,8.857c-0.037,0.579,0.006,1.157,0.135,1.721
		c0.359,1.584,1.189,2.863,2.5,3.822c1.018,0.742,2.16,1.139,3.414,1.209c0.127,0.008,0.256,0.01,0.385,0.01
		c0.576,0,1.148-0.07,1.713-0.217c1.279-0.336,2.344-1.004,3.145-2.068c1.156-1.539,1.438-3.516,1.096-5.391H9.213L9.207,8.046
		c0,0.779,0.002,2.468,0.002,2.468h3.424c0,0.254-0.301,1.273-1.258,1.924c-0.562,0.379-1.189,0.554-1.857,0.597
		c-0.088,0.006-0.178,0.01-0.266,0.01c-0.379,0-0.754-0.055-1.121-0.17c-1.428-0.459-2.49-1.75-2.637-3.322
		c-0.035-0.39-0.011-0.78,0.079-1.162c0.384-1.691,1.873-2.983,3.655-2.983c0.182,0,0.363,0.014,0.551,0.04
		c0.895,0.132,1.408,0.505,1.879,0.906c0.615-0.619,1.229-1.232,1.858-1.862c-0.151-0.11-0.506-0.469-1.133-0.832
		c-0.938-0.542-1.951-0.812-3.033-0.823C9.33,2.834,9.31,2.834,9.291,2.834"/>
	<polygon fill="#FFFFFF" points="20.729,5.797 19.113,5.797 19.047,5.797 19.047,5.86 19.047,8.027 16.881,8.027 16.82,8.027 
		16.82,8.091 16.82,9.709 16.82,9.773 16.881,9.773 19.047,9.773 19.047,11.939 19.047,12.004 19.113,12.004 20.729,12.004 
		20.793,12.004 20.793,11.939 20.793,9.773 22.959,9.773 23.024,9.773 23.024,8.027 22.959,8.027 20.793,8.027 20.793,5.86 
		20.793,5.797 	"/>
</g>
</svg>
