<?xml version="1.0" encoding="utf-8"?>
<!-- Generator: Adobe Illustrator 16.0.3, SVG Export Plug-In . SVG Version: 6.00 Build 0)  -->
<!DOCTYPE svg PUBLIC "-//W3C//DTD SVG 1.1//EN" "http://www.w3.org/Graphics/SVG/1.1/DTD/svg11.dtd">
<svg version="1.1" id="Ebene_1" xmlns="http://www.w3.org/2000/svg" xmlns:xlink="http://www.w3.org/1999/xlink" x="0px" y="0px"
	 width="20.778px" height="17.972px" viewBox="-2.839 -2.841 20.778 17.972" enable-background="new -2.839 -2.841 20.778 17.972"
	 xml:space="preserve">
<path fill="#FFFFFF" d="M10.502,0c-0.183,0-0.37,0.016-0.562,0.047C9.036,0.193,8.33,0.676,7.837,1.45
	C7.442,2.067,7.298,2.749,7.384,3.479c0.015,0.108,0.032,0.216,0.052,0.339c-2.595-0.178-4.722-1.263-6.4-3.241
	C0.638,1.282,0.522,2.035,0.701,2.822c0.18,0.791,0.62,1.409,1.276,1.883C1.489,4.691,1.034,4.562,0.599,4.329
	C0.593,4.931,0.741,5.478,1.052,5.98c0.47,0.752,1.144,1.221,2.017,1.422L3.022,7.423C2.771,7.484,2.519,7.518,2.265,7.518
	c-0.189,0-0.382-0.019-0.572-0.056C1.96,8.402,2.967,9.561,4.58,9.615c-0.462,0.363-0.949,0.646-1.476,0.861
	c-0.768,0.314-1.557,0.469-2.373,0.469c-0.242,0-0.484-0.014-0.731-0.041l0.073,0.049c1.441,0.891,3,1.336,4.681,1.336
	c0.096,0,0.188-0.002,0.285-0.004c0.582-0.018,1.159-0.08,1.729-0.205c1.657-0.367,3.084-1.154,4.264-2.375
	c0.699-0.723,1.253-1.541,1.678-2.447c0.411-0.878,0.681-1.798,0.799-2.763c0.058-0.456,0.076-0.917,0.06-1.377l0.052-0.099
	c0.421-0.309,0.798-0.666,1.128-1.071c0.123-0.151,0.238-0.312,0.355-0.466l-0.015-0.014c-0.551,0.24-1.125,0.4-1.727,0.465
	c0.637-0.411,1.084-0.967,1.328-1.688l-0.021,0.002l-0.041,0.021c-0.565,0.326-1.168,0.555-1.805,0.694l-0.165-0.049
	C12.035,0.309,11.313,0,10.502,0"/>
</svg>
