<?xml version="1.0" encoding="utf-8"?>
<!-- Generator: Adobe Illustrator 16.0.3, SVG Export Plug-In . SVG Version: 6.00 Build 0)  -->
<!DOCTYPE svg PUBLIC "-//W3C//DTD SVG 1.1//EN" "http://www.w3.org/Graphics/SVG/1.1/DTD/svg11.dtd">
<svg version="1.1" id="Ebene_1" xmlns="http://www.w3.org/2000/svg" xmlns:xlink="http://www.w3.org/1999/xlink" x="0px" y="0px"
	 width="20px" height="20px" viewBox="0 0 20 20" enable-background="new 0 0 20 20" xml:space="preserve">
<g>
	<g>
		<g>
			<g>
				<path fill="#FFFFFF" d="M13.711,14.144c0-0.078-0.063-0.142-0.142-0.142H5.788c-0.078,0-0.206,0-0.283,0H5.183
					c-0.078,0-0.142-0.063-0.142-0.142v-0.322c0-0.078,0-0.205,0-0.283V6.521c0-0.078-0.064-0.142-0.142-0.142H0.142
					C0.064,6.38,0,6.444,0,6.521v10.554c0,0.078,0.064,0.142,0.142,0.142h1.187c0.078,0,0.131,0.063,0.119,0.14L1.07,19.731
					c-0.012,0.077,0.038,0.118,0.111,0.091l4.291-2.534c0.067-0.039,0.187-0.071,0.264-0.071h7.833c0.078,0,0.142-0.063,0.142-0.142
					V14.144z"/>
			</g>
			<g>
				<g>
					<path fill="#FFFFFF" d="M20,2.27c0-0.078-0.063-0.142-0.142-0.142H5.788c-0.078,0-0.142,0.064-0.142,0.142v3.969
						c0,0.078,0,0.206,0,0.283v6.733c0,0.078,0.064,0.142,0.142,0.142h8.189c0.078,0,0.196,0.032,0.264,0.071L18.531,16
						c0.073,0.027,0.123-0.014,0.11-0.091l-0.375-2.373c-0.013-0.077,0.041-0.14,0.119-0.14h1.473c0.078,0,0.142-0.063,0.142-0.142
						V2.27z"/>
				</g>
			</g>
		</g>
	</g>
	<g>
		<circle fill="#FFFFFF" cx="12.795" cy="11.455" r="0.666"/>
		<circle fill="#FFFFFF" cx="15.462" cy="11.455" r="0.666"/>
		<circle fill="#FFFFFF" cx="18.126" cy="11.455" r="0.666"/>
	</g>
</g>
</svg>
