<?xml version="1.0" encoding="utf-8"?>
<!-- Generator: Adobe Illustrator 16.0.3, SVG Export Plug-In . SVG Version: 6.00 Build 0)  -->
<!DOCTYPE svg PUBLIC "-//W3C//DTD SVG 1.1//EN" "http://www.w3.org/Graphics/SVG/1.1/DTD/svg11.dtd">
<svg version="1.1" id="Ebene_1" xmlns="http://www.w3.org/2000/svg" xmlns:xlink="http://www.w3.org/1999/xlink" x="0px" y="0px"
	 width="29.104px" height="29.104px" viewBox="0 0 29.104 29.104" enable-background="new 0 0 29.104 29.104" xml:space="preserve">
<g>
	<g>
		<g>
			<g>
				<path fill="#1D1D1B" d="M7.278,4.651c0.056-0.055,0.146-0.055,0.2,0l16.972,16.972c0.056,0.056,0.056,0.146,0,0.201
					l-2.628,2.627c-0.056,0.056-0.146,0.056-0.2,0L4.65,7.479c-0.055-0.055-0.055-0.145,0-0.2L7.278,4.651z"/>
			</g>
		</g>
		<g>
			<g>
				<path fill="#1D1D1B" d="M21.622,4.651c0.056-0.055,0.146-0.055,0.201,0l2.627,2.628c0.056,0.056,0.056,0.146,0,0.2L7.479,24.45
					c-0.055,0.056-0.145,0.056-0.2,0l-2.628-2.627c-0.055-0.057-0.055-0.146,0-0.201L21.622,4.651z"/>
			</g>
		</g>
	</g>
</g>
</svg>
