<?xml version="1.0" encoding="utf-8"?>
<!-- Generator: Adobe Illustrator 16.0.3, SVG Export Plug-In . SVG Version: 6.00 Build 0)  -->
<!DOCTYPE svg PUBLIC "-//W3C//DTD SVG 1.1//EN" "http://www.w3.org/Graphics/SVG/1.1/DTD/svg11.dtd">
<svg version="1.1" id="Ebene_1" xmlns="http://www.w3.org/2000/svg" xmlns:xlink="http://www.w3.org/1999/xlink" x="0px" y="0px"
	 width="29.103px" height="29.103px" viewBox="0 0 29.103 29.103" enable-background="new 0 0 29.103 29.103" xml:space="preserve">
<g>
	<g>
		<path fill="#FFFFFF" d="M2,29.103c-0.512,0-1.023-0.195-1.414-0.586c-0.781-0.781-0.781-2.047,0-2.828L25.688,0.587
			c0.781-0.781,2.047-0.781,2.828,0c0.781,0.781,0.781,2.047,0,2.828L3.414,28.517C3.024,28.908,2.512,29.103,2,29.103z"/>
	</g>
	<g>
		<path fill="#FFFFFF" d="M27.103,29.103c-0.512,0-1.023-0.195-1.414-0.586L0.586,3.414c-0.781-0.781-0.781-2.047,0-2.828
			c0.78-0.781,2.047-0.781,2.828,0l25.102,25.103c0.781,0.781,0.781,2.047,0,2.828C28.126,28.908,27.614,29.103,27.103,29.103z"/>
	</g>
</g>
</svg>
