<?xml version="1.0" encoding="utf-8"?>
<!-- Generator: Adobe Illustrator 16.0.3, SVG Export Plug-In . SVG Version: 6.00 Build 0)  -->
<!DOCTYPE svg PUBLIC "-//W3C//DTD SVG 1.1//EN" "http://www.w3.org/Graphics/SVG/1.1/DTD/svg11.dtd">
<svg version="1.1" id="Ebene_1" xmlns="http://www.w3.org/2000/svg" xmlns:xlink="http://www.w3.org/1999/xlink" x="0px" y="0px"
	 width="560.85px" height="190.18px" viewBox="0 0 560.85 190.18" enable-background="new 0 0 560.85 190.18" xml:space="preserve">
<g>
	<g>
		<path fill="#FFFFFF" d="M290.488,42.556h3.116v-1.895c0-16.482,7.018-24.722,25.168-24.722c5.459,0,9.805,1.559,9.805,7.797
			c0,4.007-2.118,8.239-6.35,8.239c-5.679,0-7.906,1.782-7.906,8.018v2.563h6.125c3.785,0,6.793,3.117,6.793,6.792
			c0,3.786-3.008,6.905-6.793,6.905h-6.125v37.532c0,5.677-4.682,10.354-10.358,10.354c-5.678,0-10.358-4.678-10.358-10.354V56.253
			h-3.116c-3.788,0-6.792-3.119-6.792-6.905C283.696,45.673,286.7,42.556,290.488,42.556"/>
		<path fill="#FFFFFF" d="M366.331,40.996c19.713,0,30.4,14.591,30.4,27.62c0,6.234-2.003,9.798-9.133,9.798h-32.851
			c0.778,7.241,5.46,11.917,12.471,11.917c8.393,0,9.297-6.681,16.149-6.681c4.568,0,8.353,3.785,8.353,8.576
			c0,9.077-11.91,12.695-22.829,12.695c-21.048,0-33.966-12.362-33.966-31.853C334.925,54.584,346.952,40.996,366.331,40.996
			 M376.797,66.277c-0.334-7.128-4.566-11.582-10.803-11.582c-6.234,0-10.355,4.454-11.137,11.582H376.797z"/>
		<path fill="#FFFFFF" d="M439.945,40.996c19.709,0,30.401,14.591,30.401,27.62c0,6.234-2.008,9.798-9.132,9.798h-32.854
			c0.779,7.241,5.457,11.917,12.474,11.917c8.392,0,9.298-6.681,16.149-6.681c4.563,0,8.35,3.785,8.35,8.576
			c0,9.077-11.913,12.695-22.83,12.695c-21.046,0-33.966-12.362-33.966-31.853C408.538,54.584,420.567,40.996,439.945,40.996
			 M450.414,66.277c-0.334-7.128-4.568-11.582-10.805-11.582c-6.238,0-10.354,4.454-11.136,11.582H450.414z"/>
		<path fill="#F9B233" d="M486.972,98.273c-2.939-3.529-5.011-7.797-6.257-12.721c-4.992,17.436-19.327,30.762-37.529,33.931
			c17.062-0.279,42.064-2.563,63.488-11.828C498.47,107.245,491.834,104.119,486.972,98.273"/>
		<path fill="#FFFFFF" d="M482.604,73.773c0-9.63,2.39-17.43,7.168-23.397c4.781-5.964,11.395-8.948,19.842-8.948
			c6.373,0,11.562,2.187,15.564,6.558V26.198c0-2.814,1.018-5.241,3.055-7.28c2.038-2.037,4.465-3.057,7.282-3.057
			c2.813,0,5.241,1.02,7.282,3.057c2.035,2.039,3.054,4.466,3.054,7.28V92.56c0,3.485-0.87,6.318-2.613,8.504
			c-1.738,2.185-4.056,3.277-6.945,3.277c-2.299,0-4.334-0.739-6.113-2.222c-1.778-1.48-2.89-3.371-3.333-5.67
			c-4.299,5.336-10.415,8.004-18.342,8.004c-8.079,0-14.416-2.76-19.011-8.28C484.9,90.653,482.604,83.186,482.604,73.773
			 M503.389,73.331c0,5.261,0.945,9.468,2.836,12.616c1.89,3.149,4.684,4.725,8.391,4.725c3.705,0,6.486-1.56,8.337-4.669
			c1.853-3.113,2.779-7.372,2.779-12.784c0-5.336-0.91-9.561-2.724-12.673c-1.815-3.111-4.575-4.668-8.28-4.668
			c-3.706,0-6.521,1.577-8.446,4.724C504.353,63.752,503.389,67.995,503.389,73.331"/>
		<path fill="#FFFFFF" d="M15.498,59.361c0-6.337-0.248-11.308-0.499-16.279h9.57l0.498,9.693h0.373
			c3.355-5.717,8.947-11.06,19.012-11.06c8.076,0,14.293,4.971,16.901,12.054h0.248c1.866-3.48,4.351-5.965,6.835-7.829
			c3.606-2.733,7.457-4.225,13.172-4.225c8.078,0,19.883,5.22,19.883,26.097v35.415H90.804V69.179
			c0-11.681-4.347-18.517-13.045-18.517c-6.339,0-11.061,4.599-13.051,9.818c-0.496,1.615-0.869,3.603-0.869,5.468v37.279H53.15
			V67.191c0-9.693-4.223-16.529-12.549-16.529c-6.712,0-11.807,5.469-13.548,10.936c-0.621,1.616-0.869,3.481-0.869,5.344v36.285
			H15.498V59.361z"/>
		<path fill="#FFFFFF" d="M124.359,32.022c-4.103,0-6.836-3.231-6.836-7.083c0-3.853,2.856-6.959,7.083-6.959
			s6.961,3.106,6.961,6.959c0,3.852-2.734,7.083-7.085,7.083H124.359z M119.139,43.082h10.936v60.146h-10.936V43.082z"/>
		<path fill="#FFFFFF" d="M148.216,59.361c0-6.337-0.124-11.308-0.496-16.279h9.69l0.622,9.818h0.249
			c2.983-5.593,9.944-11.185,19.885-11.185c8.324,0,21.246,4.971,21.246,25.599v35.913h-10.934V68.556
			c0-9.691-3.602-17.894-13.917-17.894c-7.081,0-12.675,5.095-14.662,11.184c-0.498,1.368-0.746,3.357-0.746,5.096v36.285h-10.937
			V59.361z"/>
		<path fill="#FFFFFF" d="M269.129,14.998v72.697c0,5.345,0.126,11.433,0.499,15.532h-9.819l-0.497-10.438h-0.247
			c-3.357,6.71-10.565,11.808-20.383,11.808c-14.538,0-25.846-12.305-25.846-30.572c-0.125-20.131,12.426-32.31,26.965-32.31
			c9.321,0,15.534,4.349,18.145,9.073h0.248v-35.79H269.129z M258.194,67.564c0-1.492-0.127-3.232-0.499-4.723
			c-1.614-6.835-7.579-12.552-15.78-12.552c-11.309,0-18.021,9.942-18.021,23.115c0,12.303,6.09,22.369,17.773,22.369
			c7.33,0,14.041-4.972,16.028-13.049c0.372-1.491,0.499-2.982,0.499-4.723V67.564z"/>
	</g>
	<g>
		<path fill="#F9B233" d="M20.438,145.147c-2.04,0-3.359-1.439-3.359-3.239c0-1.84,1.36-3.239,3.439-3.239s3.359,1.399,3.399,3.239
			c0,1.8-1.32,3.239-3.439,3.239H20.438z M17.438,167.263v-19.557h6.079v19.557H17.438z"/>
		<path fill="#F9B233" d="M43.197,153.946c0-2.44-0.08-4.479-0.16-6.239h5.279l0.28,2.72h0.12c0.8-1.28,2.76-3.16,6.039-3.16
			c4,0,6.999,2.68,6.999,8.439v11.558h-6.079v-10.838c0-2.52-0.88-4.239-3.08-4.239c-1.68,0-2.679,1.159-3.119,2.279
			c-0.16,0.4-0.2,0.96-0.2,1.52v11.278h-6.079V153.946z"/>
		<path fill="#F9B233" d="M82.118,167.263v-15.077h-2.6v-4.479h2.6v-0.76c0-2.359,0.72-4.959,2.439-6.559
			c1.56-1.44,3.639-1.96,5.439-1.96c1.32,0,2.36,0.2,3.2,0.399l-0.24,4.68c-0.52-0.16-1.16-0.28-1.959-0.28
			c-2,0-2.84,1.56-2.84,3.479v1h3.919v4.479h-3.879v15.077H82.118z"/>
		<path fill="#F9B233" d="M118.516,167.703c-5.719,0-10.118-3.759-10.118-10.078c0-6.318,4.159-10.358,10.478-10.358
			c5.959,0,9.958,4.12,9.958,10.039c0,7.118-5.079,10.397-10.278,10.397H118.516z M118.636,163.344c2.399,0,3.879-2.36,3.879-5.88
			c0-2.879-1.12-5.839-3.879-5.839c-2.879,0-4,2.96-4,5.879c0,3.32,1.4,5.84,3.959,5.84H118.636z"/>
		<path fill="#F9B233" d="M147.437,154.145c0-2.879-0.04-4.759-0.16-6.438h5.199l0.24,3.64h0.16c1-2.88,3.36-4.08,5.279-4.08
			c0.56,0,0.84,0.04,1.28,0.12v5.72c-0.52-0.08-1-0.16-1.68-0.16c-2.24,0-3.759,1.159-4.159,3.079c-0.08,0.4-0.12,0.84-0.12,1.36
			v9.878h-6.079L147.437,154.145z"/>
		<path fill="#F9B233" d="M177.357,153.946c0-2.44-0.08-4.479-0.16-6.239h5.159l0.24,2.68h0.12c0.84-1.28,2.6-3.12,5.919-3.12
			c2.56,0,4.519,1.32,5.359,3.36h0.08c0.76-1.04,1.6-1.84,2.56-2.4c1.08-0.6,2.28-0.96,3.719-0.96c3.76,0,6.599,2.64,6.599,8.479
			v11.518h-5.919v-10.599c0-2.839-0.92-4.479-2.879-4.479c-1.44,0-2.4,0.96-2.84,2.119c-0.12,0.44-0.2,1.04-0.2,1.52v11.438h-5.919
			v-10.958c0-2.439-0.88-4.119-2.84-4.119c-1.56,0-2.479,1.199-2.839,2.159c-0.2,0.48-0.24,1.04-0.24,1.56v11.358h-5.919V153.946z"
			/>
	</g>
	<g>
		<path fill="#FFFFFF" d="M254.605,143.267v4.64h5.039v2.68h-5.039v10.438c0,2.399,0.68,3.76,2.64,3.76c0.96,0,1.52-0.08,2.04-0.24
			l0.16,2.68c-0.68,0.24-1.76,0.479-3.12,0.479c-1.64,0-2.959-0.56-3.799-1.479c-0.96-1.08-1.36-2.8-1.36-5.079v-10.558h-3v-2.68h3
			v-3.56L254.605,143.267z"/>
		<path fill="#FFFFFF" d="M286.004,167.703c-5.199,0-9.279-3.839-9.279-9.958c0-6.479,4.28-10.278,9.598-10.278
			c5.56,0,9.319,4.039,9.319,9.919c0,7.198-5,10.317-9.599,10.317H286.004z M286.125,165.064c3.359,0,5.879-3.16,5.879-7.56
			c0-3.279-1.64-7.398-5.799-7.398c-4.12,0-5.919,3.84-5.919,7.519c0,4.239,2.399,7.439,5.799,7.439H286.125z"/>
	</g>
	<g>
		<path fill="#F9B233" d="M340.726,145.147c-2.04,0-3.359-1.439-3.359-3.239c0-1.84,1.359-3.239,3.439-3.239
			c2.079,0,3.359,1.399,3.399,3.239c0,1.8-1.32,3.239-3.439,3.239H340.726z M337.726,167.263v-19.557h6.079v19.557H337.726z"/>
		<path fill="#F9B233" d="M363.485,153.946c0-2.44-0.08-4.479-0.16-6.239h5.279l0.28,2.72h0.12c0.8-1.28,2.759-3.16,6.039-3.16
			c3.999,0,6.998,2.68,6.998,8.439v11.558h-6.078v-10.838c0-2.52-0.88-4.239-3.08-4.239c-1.68,0-2.68,1.159-3.119,2.279
			c-0.16,0.4-0.2,0.96-0.2,1.52v11.278h-6.079V153.946z"/>
		<path fill="#F9B233" d="M401.684,161.984c1.12,0.68,3.439,1.439,5.239,1.439c1.84,0,2.6-0.6,2.6-1.6c0-1.039-0.6-1.52-2.84-2.279
			c-4.079-1.319-5.639-3.56-5.599-5.839c0-3.68,3.119-6.439,7.959-6.439c2.279,0,4.279,0.561,5.479,1.16l-1.04,4.159
			c-0.88-0.439-2.6-1.08-4.239-1.08c-1.479,0-2.319,0.601-2.319,1.561s0.76,1.439,3.159,2.279c3.72,1.24,5.239,3.159,5.279,5.999
			c0,3.68-2.84,6.358-8.438,6.358c-2.56,0-4.839-0.6-6.319-1.399L401.684,161.984z"/>
		<path fill="#F9B233" d="M433.884,154.265c0-2.56-0.08-4.719-0.16-6.559h5.279l0.28,2.72h0.08c1.439-2.04,3.679-3.16,6.519-3.16
			c4.279,0,8.119,3.72,8.119,9.959c0,7.118-4.52,10.478-8.879,10.478c-2.359,0-4.199-0.959-5.079-2.239h-0.08v9.719h-6.079V154.265z
			 M439.963,158.865c0,0.479,0.04,0.88,0.12,1.279c0.399,1.64,1.8,2.88,3.56,2.88c2.64,0,4.199-2.199,4.199-5.52
			c0-3.119-1.4-5.479-4.119-5.479c-1.72,0-3.24,1.279-3.64,3.079c-0.08,0.32-0.12,0.72-0.12,1.08V158.865z"/>
		<path fill="#F9B233" d="M475.604,145.147c-2.04,0-3.359-1.439-3.359-3.239c0-1.84,1.359-3.239,3.439-3.239
			c2.079,0,3.359,1.399,3.399,3.239c0,1.8-1.32,3.239-3.439,3.239H475.604z M472.604,167.263v-19.557h6.079v19.557H472.604z"/>
		<path fill="#F9B233" d="M498.403,154.145c0-2.879-0.04-4.759-0.16-6.438h5.199l0.24,3.64h0.16c1-2.88,3.359-4.08,5.279-4.08
			c0.56,0,0.84,0.04,1.279,0.12v5.72c-0.52-0.08-1-0.16-1.68-0.16c-2.239,0-3.76,1.159-4.159,3.079c-0.08,0.4-0.12,0.84-0.12,1.36
			v9.878h-6.079L498.403,154.145z"/>
		<path fill="#F9B233" d="M532.761,159.384c0.199,2.56,2.68,3.76,5.519,3.76c2.08,0,3.76-0.28,5.399-0.84l0.8,4.119
			c-2,0.84-4.439,1.24-7.079,1.24c-6.639,0-10.438-3.84-10.438-9.999c0-4.959,3.12-10.438,9.879-10.438
			c6.318,0,8.719,4.92,8.719,9.759c0,1.04-0.12,1.96-0.2,2.439L532.761,159.384z M539.919,155.225c0-1.439-0.64-3.959-3.399-3.959
			c-2.6,0-3.639,2.359-3.799,3.959H539.919z"/>
	</g>
</g>
</svg>
