<?xml version="1.0" encoding="utf-8"?>
<!-- Generator: Adobe Illustrator 16.0.3, SVG Export Plug-In . SVG Version: 6.00 Build 0)  -->
<!DOCTYPE svg PUBLIC "-//W3C//DTD SVG 1.1//EN" "http://www.w3.org/Graphics/SVG/1.1/DTD/svg11.dtd">
<svg version="1.1" id="Ebene_1" xmlns="http://www.w3.org/2000/svg" xmlns:xlink="http://www.w3.org/1999/xlink" x="0px" y="0px"
	 width="156.585px" height="47.849px" viewBox="0 0 156.585 47.849" enable-background="new 0 0 156.585 47.849"
	 xml:space="preserve">
<g>
	<g>
		<path fill="#010202" d="M81.1,11.945h0.867v-0.528c0-4.598,1.958-6.897,7.022-6.897c1.521,0,2.733,0.436,2.733,2.176
			c0,1.117-0.591,2.298-1.772,2.298c-1.583,0-2.204,0.497-2.204,2.237v0.714h1.71c1.055,0,1.894,0.871,1.894,1.895
			c0,1.057-0.839,1.927-1.894,1.927h-1.71v10.468c0,1.585-1.306,2.889-2.89,2.889c-1.582,0-2.89-1.304-2.89-2.889V15.767H81.1
			c-1.059,0-1.896-0.87-1.896-1.927C79.205,12.816,80.042,11.945,81.1,11.945"/>
		<path fill="#010202" d="M105.172,18.562c-0.092-1.988-1.272-3.229-3.012-3.229s-2.89,1.241-3.107,3.229H105.172z M102.255,11.51
			c5.497,0,8.478,4.07,8.478,7.704c0,1.739-0.558,2.733-2.547,2.733h-9.162c0.216,2.019,1.521,3.324,3.479,3.324
			c2.34,0,2.594-1.864,4.505-1.864c1.272,0,2.329,1.056,2.329,2.392c0,2.532-3.321,3.541-6.368,3.541
			c-5.87,0-9.474-3.448-9.474-8.884C93.495,15.3,96.848,11.51,102.255,11.51"/>
		<path fill="#010202" d="M125.708,18.562c-0.094-1.988-1.274-3.229-3.015-3.229c-1.739,0-2.887,1.241-3.105,3.229H125.708z
			 M122.787,11.51c5.497,0,8.481,4.07,8.481,7.704c0,1.739-0.561,2.733-2.549,2.733h-9.164c0.218,2.019,1.523,3.324,3.48,3.324
			c2.342,0,2.592-1.864,4.505-1.864c1.272,0,2.327,1.056,2.327,2.392c0,2.532-3.321,3.541-6.367,3.541
			c-5.87,0-9.474-3.448-9.474-8.884C114.027,15.3,117.383,11.51,122.787,11.51"/>
		<path fill="#010202" d="M4.395,16.633c0-1.768-0.069-3.153-0.139-4.54h2.67l0.14,2.703h0.103c0.935-1.594,2.495-3.084,5.304-3.084
			c2.253,0,3.987,1.387,4.714,3.362h0.068c0.521-0.971,1.213-1.664,1.906-2.183c1.006-0.764,2.081-1.179,3.675-1.179
			c2.253,0,5.545,1.456,5.545,7.278v9.878H25.4v-9.496c0-3.259-1.211-5.165-3.638-5.165c-1.769,0-3.085,1.282-3.64,2.738
			c-0.138,0.45-0.242,1.005-0.242,1.525v10.398h-2.98V18.817c0-2.704-1.18-4.61-3.502-4.61c-1.872,0-3.293,1.525-3.777,3.05
			c-0.174,0.451-0.244,0.971-0.244,1.491v10.12h-2.98V16.633z"/>
		<path fill="#010202" d="M33.303,12.093h3.052v16.775h-3.052V12.093z M34.76,9.007c-1.144,0-1.906-0.9-1.906-1.975
			c0-1.075,0.796-1.941,1.975-1.941c1.18,0,1.942,0.866,1.942,1.941c0,1.075-0.762,1.975-1.978,1.975H34.76z"/>
		<path fill="#010202" d="M41.416,16.633c0-1.768-0.035-3.153-0.139-4.54h2.702l0.174,2.738h0.069c0.833-1.56,2.775-3.12,5.547-3.12
			c2.322,0,5.926,1.387,5.926,7.14v10.017h-3.05v-9.67c0-2.704-1.002-4.991-3.88-4.991c-1.976,0-3.536,1.42-4.089,3.119
			c-0.139,0.382-0.209,0.937-0.209,1.422v10.12h-3.05V16.633z"/>
		<path fill="#010202" d="M72.091,18.921c0-0.416-0.035-0.9-0.14-1.317c-0.45-1.907-2.115-3.501-4.4-3.501
			c-3.156,0-5.028,2.773-5.028,6.448c0,3.431,1.699,6.239,4.958,6.239c2.044,0,3.916-1.387,4.471-3.64
			c0.104-0.417,0.14-0.832,0.14-1.317V18.921z M75.141,4.259v20.277c0,1.491,0.037,3.189,0.14,4.332h-2.738l-0.14-2.911h-0.069
			c-0.937,1.872-2.946,3.293-5.686,3.293c-4.053,0-7.208-3.431-7.208-8.527c-0.035-5.615,3.464-9.012,7.52-9.012
			c2.6,0,4.332,1.213,5.062,2.53h0.069V4.259H75.141z"/>
		<path fill="#F9B233" d="M4.936,35.926h1.698v5.457H4.936V35.926z M5.773,35.213c-0.569,0-0.937-0.4-0.937-0.901
			c0-0.516,0.378-0.906,0.958-0.906c0.582,0,0.938,0.39,0.949,0.906c0,0.501-0.367,0.901-0.959,0.901H5.773z"/>
		<path fill="#F9B233" d="M12.121,37.667c0-0.679-0.021-1.25-0.043-1.741h1.471l0.08,0.759h0.033
			c0.223-0.355,0.769-0.881,1.683-0.881c1.116,0,1.954,0.749,1.954,2.354v3.225h-1.696V38.36c0-0.704-0.246-1.184-0.86-1.184
			c-0.467,0-0.747,0.324-0.871,0.637c-0.043,0.111-0.056,0.268-0.056,0.423v3.146h-1.696V37.667z"/>
		<path fill="#F9B233" d="M22.977,41.383v-4.206h-0.724v-1.25h0.724v-0.21c0-0.658,0.202-1.384,0.683-1.829
			c0.435-0.402,1.013-0.547,1.516-0.547c0.367,0,0.658,0.056,0.893,0.111L26,34.757c-0.145-0.045-0.324-0.08-0.545-0.08
			c-0.559,0-0.794,0.435-0.794,0.971v0.278h1.093v1.25h-1.083v4.206H22.977z"/>
		<path fill="#F9B233" d="M33.164,40.289c0.668,0,1.083-0.658,1.083-1.64c0-0.803-0.313-1.629-1.083-1.629
			c-0.804,0-1.116,0.827-1.116,1.64c0,0.926,0.39,1.629,1.105,1.629H33.164z M33.129,41.504c-1.595,0-2.82-1.048-2.82-2.809
			c0-1.764,1.16-2.89,2.921-2.89c1.663,0,2.779,1.149,2.779,2.799c0,1.986-1.417,2.9-2.867,2.9H33.129z"/>
		<path fill="#F9B233" d="M41.196,37.723c0-0.803-0.01-1.327-0.043-1.797h1.45l0.066,1.017h0.045
			c0.278-0.805,0.937-1.139,1.473-1.139c0.157,0,0.233,0.01,0.357,0.035v1.595c-0.145-0.023-0.278-0.045-0.468-0.045
			c-0.625,0-1.048,0.324-1.16,0.86c-0.022,0.111-0.035,0.233-0.035,0.379v2.754h-1.695L41.196,37.723z"/>
		<path fill="#F9B233" d="M49.542,37.667c0-0.679-0.021-1.25-0.043-1.741h1.439l0.066,0.749h0.033
			c0.235-0.357,0.726-0.871,1.652-0.871c0.714,0,1.26,0.369,1.494,0.937h0.022c0.212-0.289,0.448-0.512,0.716-0.668
			c0.299-0.167,0.634-0.268,1.037-0.268c1.048,0,1.839,0.736,1.839,2.364v3.214h-1.65v-2.957c0-0.792-0.256-1.25-0.803-1.25
			c-0.402,0-0.67,0.268-0.792,0.592c-0.035,0.122-0.056,0.289-0.056,0.423v3.191h-1.65v-3.057c0-0.679-0.247-1.149-0.794-1.149
			c-0.435,0-0.691,0.334-0.79,0.602c-0.056,0.136-0.068,0.289-0.068,0.435v3.169h-1.652V37.667z"/>
		<path fill="#010202" d="M71.09,34.691v1.293h1.404v0.747H71.09v2.911c0,0.67,0.189,1.048,0.734,1.048
			c0.268,0,0.425-0.021,0.571-0.066l0.045,0.749c-0.191,0.066-0.49,0.132-0.87,0.132c-0.46,0-0.827-0.154-1.061-0.41
			c-0.268-0.303-0.379-0.782-0.379-1.417v-2.945h-0.838v-0.747h0.838V34.99L71.09,34.691z"/>
		<path fill="#010202" d="M79.881,40.77c0.937,0,1.64-0.881,1.64-2.11c0-0.914-0.455-2.063-1.617-2.063
			c-1.148,0-1.651,1.071-1.651,2.098c0,1.182,0.67,2.075,1.618,2.075H79.881z M79.848,41.504c-1.45,0-2.588-1.069-2.588-2.776
			c0-1.808,1.194-2.868,2.677-2.868c1.551,0,2.602,1.128,2.602,2.768c0,2.005-1.396,2.875-2.678,2.875H79.848z"/>
		<path fill="#F9B233" d="M94.275,35.926h1.695v5.457h-1.695V35.926z M95.112,35.213c-0.569,0-0.938-0.4-0.938-0.901
			c0-0.516,0.379-0.906,0.961-0.906c0.579,0,0.937,0.39,0.946,0.906c0,0.501-0.367,0.901-0.957,0.901H95.112z"/>
		<path fill="#F9B233" d="M101.461,37.667c0-0.679-0.024-1.25-0.046-1.741h1.473l0.077,0.759H103
			c0.222-0.355,0.769-0.881,1.685-0.881c1.114,0,1.951,0.749,1.951,2.354v3.225h-1.695V38.36c0-0.704-0.245-1.184-0.858-1.184
			c-0.47,0-0.748,0.324-0.87,0.637c-0.045,0.111-0.056,0.268-0.056,0.423v3.146h-1.695V37.667z"/>
		<path fill="#F9B233" d="M112.116,39.91c0.313,0.19,0.958,0.402,1.462,0.402c0.512,0,0.724-0.167,0.724-0.448
			c0-0.289-0.167-0.423-0.792-0.633c-1.139-0.369-1.571-0.994-1.562-1.629c0-1.027,0.871-1.797,2.222-1.797
			c0.634,0,1.192,0.157,1.526,0.324l-0.29,1.159c-0.244-0.122-0.725-0.3-1.183-0.3c-0.413,0-0.646,0.167-0.646,0.436
			c0,0.266,0.212,0.4,0.881,0.634c1.037,0.348,1.462,0.882,1.473,1.674c0,1.027-0.794,1.772-2.354,1.772
			c-0.716,0-1.352-0.167-1.764-0.39L112.116,39.91z"/>
		<path fill="#F9B233" d="M122.793,39.04c0,0.135,0.011,0.247,0.033,0.358c0.111,0.456,0.501,0.801,0.992,0.801
			c0.736,0,1.172-0.613,1.172-1.539c0-0.871-0.39-1.528-1.149-1.528c-0.48,0-0.903,0.358-1.015,0.86
			c-0.022,0.09-0.033,0.202-0.033,0.303V39.04z M121.098,37.758c0-0.713-0.024-1.316-0.046-1.832h1.474l0.076,0.759h0.024
			c0.4-0.567,1.023-0.881,1.817-0.881c1.194,0,2.265,1.038,2.265,2.778c0,1.985-1.262,2.921-2.478,2.921
			c-0.657,0-1.171-0.266-1.417-0.623h-0.021v2.709h-1.695V37.758z"/>
		<path fill="#F9B233" d="M131.898,35.926h1.695v5.457h-1.695V35.926z M132.734,35.213c-0.569,0-0.937-0.4-0.937-0.901
			c0-0.516,0.379-0.906,0.959-0.906s0.937,0.39,0.949,0.906c0,0.501-0.369,0.901-0.961,0.901H132.734z"/>
		<path fill="#F9B233" d="M139.093,37.723c0-0.803-0.011-1.327-0.044-1.797h1.448l0.068,1.017h0.043
			c0.281-0.805,0.938-1.139,1.473-1.139c0.157,0,0.235,0.01,0.359,0.035v1.595c-0.146-0.023-0.28-0.045-0.471-0.045
			c-0.623,0-1.048,0.324-1.159,0.86c-0.021,0.111-0.032,0.233-0.032,0.379v2.754h-1.696L139.093,37.723z"/>
		<path fill="#F9B233" d="M150.673,38.026c0-0.402-0.178-1.106-0.949-1.106c-0.724,0-1.013,0.658-1.059,1.106H150.673z
			 M148.676,39.186c0.056,0.713,0.749,1.048,1.539,1.048c0.582,0,1.05-0.077,1.508-0.233l0.223,1.149
			c-0.558,0.233-1.239,0.344-1.975,0.344c-1.852,0-2.912-1.068-2.912-2.788c0-1.382,0.87-2.911,2.756-2.911
			c1.762,0,2.432,1.372,2.432,2.721c0,0.29-0.033,0.548-0.056,0.68L148.676,39.186z"/>
	</g>
	<path fill="#010202" d="M151.477,5.462c-0.567-0.569-1.246-0.854-2.029-0.854c-0.789,0-1.462,0.285-2.033,0.854
		c-0.567,0.567-0.852,1.245-0.852,2.031v6.078c-1.117-1.22-2.564-1.829-4.342-1.829c-2.356,0-4.202,0.832-5.537,2.495
		c-1.332,1.665-1.999,3.84-1.999,6.528c0,2.625,0.641,4.708,1.924,6.249c1.281,1.539,3.049,2.309,5.303,2.309
		c2.211,0,3.917-0.743,5.114-2.231c0.127,0.64,0.438,1.167,0.934,1.579c0.496,0.415,1.062,0.621,1.702,0.621
		c0.806,0,1.452-0.304,1.939-0.913c0.485-0.611,0.729-1.401,0.729-2.373V7.493C152.331,6.707,152.045,6.029,151.477,5.462z
		 M141.076,24.785c-0.076-0.047-0.153-0.095-0.228-0.145c-1.205-0.801-2.004-2.155-2.004-3.712c0-2.487,2.015-4.501,4.5-4.501
		c2.486,0,4.5,2.014,4.5,4.501c0,0.415-0.075,0.81-0.181,1.193c-0.829,3.521-7.071,5.792-7.071,5.792l0.49-3.09L141.076,24.785z"/>
</g>
</svg>
