<?xml version="1.0" encoding="utf-8"?>
<!-- Generator: Adobe Illustrator 16.0.3, SVG Export Plug-In . SVG Version: 6.00 Build 0)  -->
<!DOCTYPE svg PUBLIC "-//W3C//DTD SVG 1.1//EN" "http://www.w3.org/Graphics/SVG/1.1/DTD/svg11.dtd">
<svg version="1.1" id="Ebene_1" xmlns="http://www.w3.org/2000/svg" xmlns:xlink="http://www.w3.org/1999/xlink" x="0px" y="0px"
	 width="29.104px" height="29.104px" viewBox="0 0 29.104 29.104" enable-background="new 0 0 29.104 29.104" xml:space="preserve">
<g>
	<g>
		<g>
			<path fill="#FFFFFF" d="M7.146,12.247c0.056-0.056,0.146-0.056,0.2,0l7.778,7.777c0.056,0.057,0.056,0.146,0,0.201l-2.628,2.627
				c-0.056,0.057-0.146,0.057-0.2,0l-7.778-7.777c-0.055-0.056-0.055-0.146,0-0.2L7.146,12.247z"/>
		</g>
	</g>
	<g>
		<g>
			<path fill="#FFFFFF" d="M21.558,8.145c0.055-0.054,0.146-0.054,0.201,0.001l2.627,2.628c0.055,0.057,0.055,0.146,0,0.199
				L12.507,22.854c-0.055,0.057-0.146,0.058-0.202-0.002l-2.628-2.627c-0.054-0.057-0.054-0.146,0-0.199L21.558,8.145z"/>
		</g>
	</g>
</g>
</svg>
