<?xml version="1.0" encoding="utf-8"?>
<!-- Generator: Adobe Illustrator 16.0.3, SVG Export Plug-In . SVG Version: 6.00 Build 0)  -->
<!DOCTYPE svg PUBLIC "-//W3C//DTD SVG 1.1//EN" "http://www.w3.org/Graphics/SVG/1.1/DTD/svg11.dtd">
<svg version="1.1" id="Ebene_1" xmlns="http://www.w3.org/2000/svg" xmlns:xlink="http://www.w3.org/1999/xlink" x="0px" y="0px"
	 width="39.5px" height="29.088px" viewBox="0 0 39.5 29.088" enable-background="new 0 0 39.5 29.088" xml:space="preserve">
<g>
	<g>
		<g>
			<g>
				<g>
					<path fill="#FFFFFF" d="M2.637,12.686c0-0.078,0.064-0.142,0.142-0.142h33.943c0.078,0,0.142,0.064,0.142,0.142v3.717
						c0,0.078-0.063,0.142-0.142,0.142H2.779c-0.078,0-0.142-0.063-0.142-0.142V12.686z"/>
				</g>
			</g>
			<g>
				<g>
					<path fill="#FFFFFF" d="M2.637,1.051c0-0.078,0.064-0.142,0.142-0.142h33.943c0.078,0,0.142,0.064,0.142,0.142v3.717
						c0,0.078-0.063,0.142-0.142,0.142H2.779c-0.078,0-0.142-0.064-0.142-0.142V1.051z"/>
				</g>
			</g>
			<g>
				<g>
					<path fill="#FFFFFF" d="M2.637,24.32c0-0.078,0.064-0.142,0.142-0.142h33.943c0.078,0,0.142,0.063,0.142,0.142v3.717
						c0,0.078-0.063,0.142-0.142,0.142H2.779c-0.078,0-0.142-0.063-0.142-0.142V24.32z"/>
				</g>
			</g>
		</g>
	</g>
</g>
</svg>
