<?xml version="1.0" encoding="utf-8"?>
<!-- Generator: Adobe Illustrator 16.0.3, SVG Export Plug-In . SVG Version: 6.00 Build 0)  -->
<!DOCTYPE svg PUBLIC "-//W3C//DTD SVG 1.1//EN" "http://www.w3.org/Graphics/SVG/1.1/DTD/svg11.dtd">
<svg version="1.1" id="Ebene_1" xmlns="http://www.w3.org/2000/svg" xmlns:xlink="http://www.w3.org/1999/xlink" x="0px" y="0px"
	 width="39.5px" height="29.088px" viewBox="0 0 39.5 29.088" enable-background="new 0 0 39.5 29.088" xml:space="preserve">
<g>
	<g>
		<g>
			<path fill="#FFFFFF" d="M37.5,16.545H2c-1.104,0-2-0.896-2-2s0.896-2,2-2h35.5c1.104,0,2,0.896,2,2S38.604,16.545,37.5,16.545z"
				/>
		</g>
		<g>
			<path fill="#FFFFFF" d="M37.5,4H2C0.896,4,0,3.104,0,2s0.896-2,2-2h35.5c1.104,0,2,0.896,2,2S38.604,4,37.5,4z"/>
		</g>
		<g>
			<path fill="#FFFFFF" d="M37.5,29.088H2c-1.104,0-2-0.896-2-2s0.896-2,2-2h35.5c1.104,0,2,0.896,2,2S38.604,29.088,37.5,29.088z"
				/>
		</g>
	</g>
</g>
</svg>
