<?xml version="1.0" encoding="utf-8"?>
<!-- Generator: Adobe Illustrator 16.0.0, SVG Export Plug-In . SVG Version: 6.00 Build 0)  -->
<!DOCTYPE svg PUBLIC "-//W3C//DTD SVG 1.1//EN" "http://www.w3.org/Graphics/SVG/1.1/DTD/svg11.dtd">
<svg version="1.1" id="Ebene_1" xmlns="http://www.w3.org/2000/svg" xmlns:xlink="http://www.w3.org/1999/xlink" x="0px" y="0px"
	 width="29.104px" height="29.104px" viewBox="0 0 29.104 29.104" enable-background="new 0 0 29.104 29.104" xml:space="preserve">
<path fill="#FFFFFF" d="M16.714,2.355c-5.623,0-10.478,3.936-11.813,9.249l-4.732-0.402L5.76,23.116l7.524-10.799L8.96,11.948
	c1.102-3.251,4.199-5.594,7.754-5.594c4.52,0,8.197,3.676,8.197,8.195s-3.679,8.197-8.197,8.197c-1.698,0-3.332-0.521-4.724-1.511
	l-2.313,3.265c2.072,1.47,4.506,2.246,7.038,2.246c6.726,0,12.197-5.473,12.197-12.197C28.911,7.826,23.439,2.355,16.714,2.355z"/>
</svg>
