<?xml version="1.0" encoding="utf-8"?>
<!-- Generator: Adobe Illustrator 16.0.3, SVG Export Plug-In . SVG Version: 6.00 Build 0)  -->
<!DOCTYPE svg PUBLIC "-//W3C//DTD SVG 1.1//EN" "http://www.w3.org/Graphics/SVG/1.1/DTD/svg11.dtd">
<svg version="1.1" id="Ebene_1" xmlns="http://www.w3.org/2000/svg" xmlns:xlink="http://www.w3.org/1999/xlink" x="0px" y="0px"
	 width="20px" height="20px" viewBox="0 0 20 20" enable-background="new 0 0 20 20" xml:space="preserve">
<g>
	<g>
		<g>
			<g>
				<path fill="#FAAF40" d="M13.193,19.857c0,0.078-0.063,0.143-0.143,0.143H4.316c-0.078,0-0.142-0.063-0.142-0.143V0.142
					C4.175,0.064,4.239,0,4.316,0h11.368c0.078,0,0.142,0.064,0.142,0.142v14.252c0,0.078-0.063,0.142-0.142,0.142h-1.713
					c-0.078,0-0.143-0.063-0.143-0.142V2.139c0-0.078-0.063-0.142-0.143-0.142H6.313c-0.078,0-0.142,0.064-0.142,0.142v15.724
					c0,0.078,0.064,0.142,0.142,0.142h4.742c0.078,0,0.143-0.063,0.143-0.142V7.209c0-0.078-0.063-0.142-0.143-0.142h-2.11
					c-0.078,0-0.142,0.064-0.142,0.142v7.202c0,0.078-0.064,0.142-0.142,0.142H6.949c-0.078,0-0.142-0.063-0.142-0.142V5.214
					c0-0.078,0.064-0.142,0.142-0.142h6.103c0.078,0,0.142,0.063,0.142,0.142V19.857L13.193,19.857z"/>
			</g>
		</g>
	</g>
</g>
</svg>
