<?xml version="1.0" encoding="utf-8"?>
<!-- Generator: Adobe Illustrator 16.0.3, SVG Export Plug-In . SVG Version: 6.00 Build 0)  -->
<!DOCTYPE svg PUBLIC "-//W3C//DTD SVG 1.1//EN" "http://www.w3.org/Graphics/SVG/1.1/DTD/svg11.dtd">
<svg version="1.1" id="Ebene_1" xmlns="http://www.w3.org/2000/svg" xmlns:xlink="http://www.w3.org/1999/xlink" x="0px" y="0px"
	 width="18.146px" height="18.85px" viewBox="0 0 18.146 18.85" enable-background="new 0 0 18.146 18.85" xml:space="preserve">
<g>
	<path fill="#958B87" d="M11.045,10.189c0.766-0.959,1.17-2.115,1.17-3.342c0-2.961-2.408-5.367-5.367-5.367S1.48,3.887,1.48,6.848
		c0,2.959,2.408,5.367,5.367,5.367c0.91,0,1.809-0.232,2.601-0.672l0.836-0.555L11.045,10.189z M16.319,18.85L16.319,18.85
		c-0.563,0-1.271-0.371-1.892-0.992L9.661,13.09c-0.881,0.396-1.843,0.605-2.813,0.605C3.072,13.695,0,10.623,0,6.848
		C0,3.07,3.072,0,6.848,0c3.776,0,6.848,3.07,6.848,6.848c0,1.342-0.379,2.617-1.102,3.725l4.559,4.561
		c1.006,1.006,1.279,2.086,0.68,2.686l-0.719,0.719C16.971,18.68,16.717,18.85,16.319,18.85"/>
</g>
</svg>
