<?xml version="1.0" encoding="utf-8"?>
<!-- Generator: Adobe Illustrator 16.0.3, SVG Export Plug-In . SVG Version: 6.00 Build 0)  -->
<!DOCTYPE svg PUBLIC "-//W3C//DTD SVG 1.1//EN" "http://www.w3.org/Graphics/SVG/1.1/DTD/svg11.dtd">
<svg version="1.1" id="Ebene_1" xmlns="http://www.w3.org/2000/svg" xmlns:xlink="http://www.w3.org/1999/xlink" x="0px" y="0px"
	 width="18.146px" height="18.85px" viewBox="0 0 18.146 18.85" enable-background="new 0 0 18.146 18.85" xml:space="preserve">
<g>
	<path fill="#958B87" d="M11.045,10.189c0.767-0.959,1.17-2.114,1.17-3.342c0-2.961-2.407-5.367-5.366-5.367S1.48,3.887,1.48,6.848
		c0,2.959,2.408,5.367,5.367,5.367c0.909,0,1.809-0.232,2.601-0.672l0.836-0.556L11.045,10.189z M14.76,18.175l-5.1-5.085
		c-0.881,0.396-1.843,0.604-2.813,0.604C3.072,13.695,0,10.623,0,6.848C0,3.07,3.072,0,6.848,0c3.775,0,6.848,3.069,6.848,6.848
		c0,1.342-0.379,2.617-1.102,3.726l4.893,4.878L14.76,18.175z"/>
</g>
</svg>
