<?xml version="1.0" encoding="utf-8"?>
<!-- Generator: Adobe Illustrator 16.0.3, SVG Export Plug-In . SVG Version: 6.00 Build 0)  -->
<!DOCTYPE svg PUBLIC "-//W3C//DTD SVG 1.1//EN" "http://www.w3.org/Graphics/SVG/1.1/DTD/svg11.dtd">
<svg version="1.1" id="Ebene_1" xmlns="http://www.w3.org/2000/svg" xmlns:xlink="http://www.w3.org/1999/xlink" x="0px" y="0px"
	 width="20px" height="20px" viewBox="0 0 20 20" enable-background="new 0 0 20 20" xml:space="preserve">
<g>
	<g>
		<rect x="2.258" y="18.167" fill="#FFFFFF" width="2.691" height="1.833"/>
		<rect x="2.258" y="0.1" fill="#FFFFFF" width="2.691" height="14.691"/>
		<polygon fill="#FFFFFF" points="6.072,17.542 6.072,15.409 4.949,15.409 2.258,15.409 1.135,15.409 1.135,17.542 2.258,17.542 
			4.949,17.542 		"/>
	</g>
	<rect x="15.049" y="0.1" fill="#FFFFFF" width="2.693" height="4.64"/>
	<rect x="15.049" y="8.117" fill="#FFFFFF" width="2.693" height="11.883"/>
	<polygon fill="#FFFFFF" points="13.928,5.366 13.928,7.498 15.049,7.498 17.742,7.498 18.865,7.498 18.865,5.366 17.742,5.366 
		15.049,5.366 	"/>
	<rect x="8.57" fill="#FFFFFF" width="2.693" height="8.651"/>
	<rect x="8.57" y="12.027" fill="#FFFFFF" width="2.693" height="7.873"/>
	<polygon fill="#FFFFFF" points="7.447,9.276 7.447,11.409 8.57,11.409 11.264,11.409 12.385,11.409 12.385,9.276 11.264,9.276 
		8.57,9.276 	"/>
</g>
</svg>
