<?xml version="1.0" encoding="utf-8"?>
<!-- Generator: Adobe Illustrator 16.0.3, SVG Export Plug-In . SVG Version: 6.00 Build 0)  -->
<!DOCTYPE svg PUBLIC "-//W3C//DTD SVG 1.1//EN" "http://www.w3.org/Graphics/SVG/1.1/DTD/svg11.dtd">
<svg version="1.1" id="Ebene_1" xmlns="http://www.w3.org/2000/svg" xmlns:xlink="http://www.w3.org/1999/xlink" x="0px" y="0px"
	 width="20px" height="20px" viewBox="0 0 20 20" enable-background="new 0 0 20 20" xml:space="preserve">
<g>
	<g>
		<g>
			<g>
				<path fill="#FFFFFF" d="M2.258,18.309c0-0.078,0.064-0.142,0.142-0.142h2.408c0.078,0,0.142,0.063,0.142,0.142v1.55
					C4.949,19.937,4.885,20,4.808,20H2.399c-0.078,0-0.142-0.063-0.142-0.142V18.309z"/>
			</g>
			<g>
				<path fill="#FFFFFF" d="M2.258,0.242c0-0.078,0.064-0.142,0.142-0.142h2.408c0.078,0,0.142,0.064,0.142,0.142v14.408
					c0,0.078-0.064,0.142-0.142,0.142H2.399c-0.078,0-0.142-0.063-0.142-0.142V0.242z"/>
			</g>
			<g>
				<path fill="#FFFFFF" d="M5.93,17.542c0.078,0,0.142-0.063,0.142-0.142v-1.85c0-0.078-0.064-0.142-0.142-0.142H5.091
					c-0.078,0-0.206,0-0.283,0H2.399c-0.078,0-0.206,0-0.283,0h-0.84c-0.078,0-0.142,0.063-0.142,0.142v1.85
					c0,0.078,0.064,0.142,0.142,0.142h0.84c0.078,0,0.206,0,0.283,0h2.408c0.078,0,0.206,0,0.283,0H5.93z"/>
			</g>
		</g>
		<g>
			<path fill="#FFFFFF" d="M15.049,0.242c0-0.078,0.063-0.142,0.142-0.142h2.41c0.078,0,0.142,0.064,0.142,0.142v4.357
				c0,0.078-0.063,0.142-0.142,0.142h-2.41c-0.078,0-0.142-0.064-0.142-0.142V0.242z"/>
		</g>
		<g>
			<path fill="#FFFFFF" d="M15.049,8.259c0-0.078,0.063-0.142,0.142-0.142h2.41c0.078,0,0.142,0.064,0.142,0.142v11.6
				c0,0.078-0.063,0.142-0.142,0.142h-2.41c-0.078,0-0.142-0.063-0.142-0.142V8.259z"/>
		</g>
		<g>
			<path fill="#FFFFFF" d="M14.069,5.366c-0.078,0-0.142,0.064-0.142,0.142v1.849c0,0.078,0.063,0.142,0.142,0.142h0.838
				c0.078,0,0.205,0,0.283,0h2.41c0.078,0,0.205,0,0.283,0h0.84c0.078,0,0.142-0.064,0.142-0.142V5.508
				c0-0.078-0.063-0.142-0.142-0.142h-0.84c-0.078,0-0.205,0-0.283,0h-2.41c-0.078,0-0.205,0-0.283,0H14.069z"/>
		</g>
		<g>
			<path fill="#FFFFFF" d="M8.57,0.142C8.57,0.064,8.634,0,8.711,0h2.411c0.078,0,0.142,0.064,0.142,0.142v8.368
				c0,0.078-0.063,0.142-0.142,0.142H8.711c-0.078,0-0.142-0.064-0.142-0.142V0.142z"/>
		</g>
		<g>
			<path fill="#FFFFFF" d="M8.57,12.169c0-0.078,0.064-0.142,0.142-0.142h2.411c0.078,0,0.142,0.063,0.142,0.142v7.59
				c0,0.078-0.063,0.142-0.142,0.142H8.711c-0.078,0-0.142-0.063-0.142-0.142V12.169z"/>
		</g>
		<g>
			<path fill="#FFFFFF" d="M7.588,9.276c-0.078,0-0.142,0.064-0.142,0.142v1.85c0,0.078,0.064,0.142,0.142,0.142h0.84
				c0.078,0,0.206,0,0.283,0h2.411c0.078,0,0.205,0,0.283,0h0.838c0.078,0,0.142-0.063,0.142-0.142v-1.85
				c0-0.078-0.063-0.142-0.142-0.142h-0.838c-0.078,0-0.205,0-0.283,0H8.711c-0.078,0-0.206,0-0.283,0H7.588z"/>
		</g>
	</g>
</g>
</svg>
