<?xml version="1.0" encoding="utf-8"?>
<!-- Generator: Adobe Illustrator 16.0.3, SVG Export Plug-In . SVG Version: 6.00 Build 0)  -->
<!DOCTYPE svg PUBLIC "-//W3C//DTD SVG 1.1//EN" "http://www.w3.org/Graphics/SVG/1.1/DTD/svg11.dtd">
<svg version="1.1" id="Ebene_1" xmlns="http://www.w3.org/2000/svg" xmlns:xlink="http://www.w3.org/1999/xlink" x="0px" y="0px"
	 width="20px" height="20px" viewBox="0 0 20 20" enable-background="new 0 0 20 20" xml:space="preserve">
<g>
	<g>
		<g>
			<g>
				<path fill="#FAAF40" d="M20,0.142C20,0.064,19.938,0,19.857,0H10.92c-0.078,0-0.143,0.064-0.143,0.142v10.497
					c0,0.078-0.063,0.143-0.141,0.143H0.142C0.064,10.78,0,10.844,0,10.922v4.635c0,0.077,0.064,0.142,0.142,0.142h11.523
					c0.078,0,0.196,0.032,0.265,0.071l6.076,3.576c0.073,0.027,0.123-0.014,0.11-0.091l-0.542-3.418
					c-0.014-0.077,0.041-0.14,0.119-0.14h2.164c0.078,0,0.143-0.063,0.143-0.143V0.142z"/>
			</g>
		</g>
		<g>
			<g>
				<path fill="#FAAF40" d="M3.637,0.142C3.637,0.064,3.701,0,3.779,0h1.594C5.45,0,5.514,0.064,5.514,0.142v8.867
					c0,0.078-0.064,0.142-0.142,0.142H3.779c-0.078,0-0.142-0.064-0.142-0.142V0.142z"/>
			</g>
			<g>
				<path fill="#FAAF40" d="M0,3.779c0-0.078,0.064-0.142,0.142-0.142h8.866c0.078,0,0.142,0.064,0.142,0.142v1.593
					c0,0.078-0.064,0.142-0.142,0.142H0.142C0.064,5.513,0,5.449,0,5.372V3.779z"/>
			</g>
		</g>
	</g>
</g>
</svg>
